<svg width="247" height="504" viewBox="0 0 247 504" fill="none" xmlns="http://www.w3.org/2000/svg">
<path d="M218.128 12.4332H170.563C167.151 12.4332 163.879 13.7886 161.466 16.2013C159.054 18.614 157.698 21.8863 157.698 25.2984V26.5064C157.698 29.9185 159.054 33.1908 161.466 35.6035C163.879 38.0162 167.151 39.3716 170.563 39.3716H218.128C221.543 39.3716 224.819 38.0171 227.236 35.6053C229.654 33.1935 231.016 29.9212 231.024 26.5064V25.2984C231.016 21.8836 229.654 18.6113 227.236 16.1995C224.819 13.7877 221.543 12.4332 218.128 12.4332ZM216.286 32.6068C214.954 32.6068 213.652 32.2118 212.545 31.4718C211.437 30.7318 210.574 29.68 210.064 28.4494C209.555 27.2188 209.421 25.8647 209.681 24.5583C209.941 23.252 210.582 22.052 211.524 21.1101C212.466 20.1683 213.666 19.5269 214.972 19.267C216.279 19.0071 217.633 19.1405 218.863 19.6502C220.094 20.16 221.146 21.0232 221.886 22.1307C222.626 23.2381 223.021 24.5402 223.021 25.8722C223.021 26.7566 222.847 27.6323 222.508 28.4494C222.17 29.2665 221.674 30.0089 221.048 30.6343C220.423 31.2596 219.681 31.7557 218.863 32.0942C218.046 32.4326 217.171 32.6068 216.286 32.6068Z" fill="#273036"/>
<path d="M116.687 38.3448C116.356 38.3755 116.05 38.5352 115.835 38.7894C115.62 39.0436 115.514 39.372 115.539 39.7038C115.603 40.0036 115.773 40.2703 116.018 40.4545C116.263 40.6387 116.566 40.728 116.872 40.7059C117.177 40.6838 117.465 40.5518 117.68 40.3343C117.896 40.1168 118.026 39.8284 118.046 39.5226C118.034 39.3559 117.99 39.1931 117.916 39.0435C117.841 38.894 117.738 38.7607 117.611 38.6512C117.485 38.5418 117.338 38.4584 117.18 38.4058C117.021 38.3532 116.854 38.3325 116.687 38.3448Z" fill="#273036"/>
<path d="M100.106 38.7978C99.9422 38.8052 99.7812 38.846 99.6334 38.9177C99.4855 38.9894 99.3538 39.0906 99.2464 39.215C99.139 39.3394 99.0581 39.4844 99.0086 39.6411C98.9592 39.7979 98.9422 39.9631 98.9588 40.1266C98.9821 40.4577 99.1343 40.7666 99.3827 40.9868C99.6312 41.207 99.956 41.321 100.288 41.3044C100.621 41.2736 100.93 41.115 101.15 40.8617C101.369 40.6085 101.482 40.2801 101.465 39.9454C101.435 39.6141 101.275 39.3081 101.021 39.0934C100.767 38.8788 100.438 38.7726 100.106 38.7978Z" fill="#273036"/>
<path d="M192.973 93.2182C193.57 90.0357 193.487 86.763 192.731 83.6146C194.211 80.1718 194.06 74.2224 192.218 67.0348C191.953 66.0144 191.308 65.1336 190.416 64.5723C189.524 64.0111 188.451 63.8116 187.416 64.0148C186.471 64.2038 185.607 64.6781 184.94 65.3738C184.36 64.3388 183.45 63.5288 182.354 63.0741C181.258 62.6194 180.042 62.5466 178.9 62.8672C178.263 63.008 177.666 63.2863 177.148 63.6826L176.695 61.78C175.215 54.834 174.098 49.851 171.591 48.2806C171.198 48.0261 170.755 47.857 170.292 47.7842C169.829 47.7114 169.356 47.7364 168.904 47.8578C168.502 47.9712 168.128 48.1666 167.806 48.4317C167.484 48.6968 167.22 49.0258 167.031 49.398C164.404 54.1998 168.511 71.6554 169.689 75.5814C168.192 76.6041 167.047 78.0632 166.409 79.76C165.772 81.4568 165.672 83.3089 166.125 85.0642C166.62 87.524 167.702 89.8277 169.279 91.7787C170.857 93.7297 172.883 95.2701 175.185 96.2684C176.245 106.995 176.658 117.776 176.423 128.552C165.819 119.159 154.353 110.786 142.177 103.547C134.385 99.2884 122.637 99.0468 118.832 99.0468C118.101 96.6829 116.561 94.6517 114.483 93.3088C112.808 88.6057 111.703 83.7187 111.191 78.7524C110.859 76.6082 110.497 74.4036 110.104 72.2896H110.648C115.45 70.3568 130.58 46.1364 127.771 35.0832C125.632 28.0156 122.468 21.3001 118.379 15.1512C123.453 14.0942 136.499 10.9836 139.096 6.09118C139.424 5.49426 139.596 4.82428 139.596 4.14328C139.596 3.46228 139.424 2.7923 139.096 2.19538C137.707 -0.462217 133.298 -2.33462 111.463 6.63478C108.365 3.13995 104.038 0.976162 99.3831 0.594781C97.5026 0.716991 95.6686 1.23156 93.9989 2.10538C92.3293 2.9792 90.8611 4.1929 89.6889 5.66838C86.4294 9.83558 84.344 14.7989 83.6489 20.0436C83.1959 22.4294 82.8637 24.6944 82.5617 26.8386C81.5229 26.2471 80.3158 26.0208 79.1333 26.196C77.9508 26.3712 76.8612 26.9377 76.0385 27.805C72.6259 30.976 71.3273 38.0126 73.5923 41.0024C74.2857 41.8324 75.1618 42.4906 76.1521 42.9254C77.1423 43.3603 78.2198 43.56 79.3001 43.509C79.7223 43.5401 80.1463 43.5401 80.5685 43.509C79.6625 55.589 79.8135 66.7932 79.9947 78.6316C79.9947 83.5542 79.9947 88.507 79.9947 93.7316C78.1117 95.1104 76.758 97.093 76.1593 99.3488V99.6508C71.8407 100.345 51.1537 103.849 44.3587 109.436C37.5637 115.023 11.5011 149.028 7.09191 158.118L5.73291 160.836C2.71291 167.269 -0.307086 173.339 0.0251143 180.949C0.780114 192.788 10.7763 203.66 19.2625 210.877L18.7793 220.3C18.6235 223.66 19.8086 226.944 22.074 229.43C24.3393 231.916 27.4995 233.401 30.8593 233.558L41.7917 234.101C41.3689 242.92 40.9159 247.208 40.4629 251.315C40.1005 254.547 39.7683 257.597 39.4965 262.61C39.4855 262.967 39.6157 263.314 39.8589 263.576C39.978 263.707 40.1225 263.812 40.2834 263.884C40.4444 263.957 40.6185 263.996 40.7951 263.999H41.6105C41.6105 273.814 41.3991 284.324 41.3387 295.226C38.6707 295.919 35.9382 296.334 33.1847 296.464C32.8705 296.512 32.5839 296.671 32.3767 296.912C32.1696 297.153 32.0557 297.46 32.0557 297.778C32.0557 298.096 32.1696 298.403 32.3767 298.644C32.5839 298.885 32.8705 299.044 33.1847 299.092C35.8917 298.934 38.5798 298.54 41.2179 297.914C40.9763 356.713 41.7313 427.562 42.1541 465.795V473.436C42.1541 484.912 42.3353 492.764 42.1541 495.512C42.1231 495.692 42.1231 495.876 42.1541 496.056V501.794C42.154 502.141 42.2899 502.475 42.5326 502.723C42.7753 502.971 43.1056 503.115 43.4527 503.123H162.048C162.395 503.115 162.726 502.971 162.968 502.723C163.211 502.475 163.347 502.141 163.347 501.794V496.63C163.347 496.63 163.347 496.63 163.347 496.448C163.7 494.952 163.732 493.398 163.441 491.888C163.149 490.378 162.541 488.948 161.656 487.69C160.371 486.191 158.796 484.966 157.027 484.089C155.257 483.212 153.329 482.701 151.357 482.587C142.156 480.939 133.218 478.064 124.781 474.04L121.52 472.651C136.62 424.331 156.703 350.794 158.756 263.788H158.998C159.35 263.786 159.686 263.645 159.934 263.395C160.174 263.141 160.313 262.808 160.327 262.459C159.995 245.819 153.29 195.868 147.552 157.242C155.042 159.326 181.738 166.483 195.419 166.483C198.026 166.799 200.662 166.202 202.879 164.792C209.794 157.937 201.218 122.301 192.822 93.6108L192.973 93.2182ZM136.861 3.31278C136.995 3.53099 137.065 3.7818 137.065 4.03758C137.065 4.29336 136.995 4.54418 136.861 4.76238C134.687 8.74878 120.523 12.1614 116.839 12.7956C115.815 11.3415 114.706 9.94986 113.517 8.62798C133.962 0.32298 136.529 2.73898 136.861 3.31278ZM91.5613 7.29918C92.4871 6.09306 93.6569 5.09577 94.9943 4.37244C96.3317 3.64911 97.8066 3.21599 99.3227 3.10138C102.973 3.36661 106.39 4.99434 108.896 7.66158C99.8361 11.4668 91.2895 15.6344 86.8199 17.839C87.5334 13.9911 89.1708 10.3741 91.5915 7.29918H91.5613ZM75.7365 39.281C74.3775 37.5294 75.2835 32.0028 77.8807 29.5868C79.3303 28.2278 80.9007 28.3184 82.6825 29.8586C83.5831 30.6804 84.3747 31.6141 85.0381 32.637C85.1321 32.7815 85.2546 32.9053 85.3981 33.0009C85.5416 33.0965 85.7031 33.1619 85.8726 33.193C86.0422 33.224 86.2164 33.2202 86.3844 33.1818C86.5525 33.1433 86.7109 33.0709 86.8501 32.9692C86.9937 32.8747 87.1172 32.7527 87.2132 32.6102C87.3093 32.4676 87.3762 32.3074 87.4099 32.1389C87.4436 31.9703 87.4435 31.7968 87.4096 31.6282C87.3758 31.4597 87.3087 31.2996 87.2125 31.1572C86.5533 30.2112 85.8159 29.3222 85.0079 28.4996V28.0768C85.3099 25.9326 85.6421 23.5166 86.0951 21.0704L87.5749 20.3456C92.1049 18.141 101.346 13.6412 110.829 9.65478C112.365 11.33 113.787 13.1056 115.087 14.97C119.529 21.296 122.934 28.2895 125.174 35.6872C127.801 45.925 112.883 68.5146 109.621 69.8434C109.199 69.9998 108.764 70.121 108.322 70.2058C102.766 71.2628 95.3363 66.0382 92.9203 61.1458C92.8511 60.9833 92.7495 60.8366 92.6216 60.7147C92.4938 60.5928 92.3424 60.4983 92.1768 60.4369C92.0111 60.3756 91.8347 60.3486 91.6583 60.3578C91.4819 60.3669 91.3093 60.4119 91.1509 60.4901C90.9925 60.5683 90.8517 60.6779 90.7371 60.8124C90.6226 60.9468 90.5366 61.1032 90.4846 61.272C90.4326 61.4408 90.4155 61.6185 90.4345 61.7941C90.4534 61.9697 90.508 62.1396 90.5949 62.2934C92.1995 65.3092 94.5426 67.869 97.4051 69.7333C100.268 71.5977 103.556 72.7057 106.963 72.954H107.628C108.02 74.9774 108.353 77.0914 108.685 79.3262C109.215 83.6828 110.114 87.9867 111.373 92.1914C101.94 90.5766 92.294 90.6687 82.8939 92.4632C82.8939 87.6916 82.8939 83.0408 82.8939 78.4504C82.5134 66.5077 82.7351 54.5535 83.5583 42.6332L84.4945 42.2406C84.7903 42.0641 85.0059 41.7797 85.0961 41.4473C85.1862 41.1149 85.1438 40.7605 84.9777 40.4588C84.896 40.3104 84.7855 40.1799 84.6526 40.075C84.5197 39.97 84.3671 39.8927 84.2038 39.8477C84.0406 39.8027 83.87 39.7908 83.702 39.8127C83.5341 39.8347 83.3723 39.8901 83.2261 39.9756C82.7825 40.2031 82.3171 40.3852 81.8369 40.5192C80.8141 40.9537 79.6836 41.0679 78.5946 40.8469C77.5055 40.6258 76.509 40.0799 75.7365 39.281ZM57.4353 155.521L119.949 158.541C122.601 158.681 125.09 159.865 126.872 161.834C128.655 163.803 129.586 166.397 129.462 169.05L126.654 225.585C126.506 227.825 125.613 229.951 124.117 231.625L127.137 172.252C127.206 170.759 126.974 169.269 126.455 167.868C125.936 166.467 125.141 165.185 124.117 164.098C123.113 162.989 121.9 162.089 120.547 161.452C119.194 160.814 117.729 160.451 116.235 160.383L55.6233 157.635L57.4353 155.521ZM30.8895 231.021C28.2401 230.888 25.7513 229.71 23.9683 227.746C22.1853 225.782 21.2533 223.191 21.3765 220.541L21.7691 213.022C24.3059 215.045 26.9937 216.978 29.8023 218.85C45.9895 228.877 64.8645 235.339 76.7633 234.856C78.0619 234.856 79.7833 227.246 80.0853 217.763C72.8071 215.407 56.3179 205.17 44.4795 194.418C41.0134 191.753 38.1347 188.402 36.0235 184.573C35.7224 184.06 35.5487 183.483 35.5172 182.889C35.4856 182.295 35.5971 181.702 35.8423 181.161C41.1825 173.782 46.9505 166.724 53.1167 160.021L116.084 163.041C117.24 163.119 118.37 163.427 119.406 163.945C120.443 164.463 121.367 165.182 122.124 166.061C122.901 166.904 123.501 167.894 123.89 168.973C124.279 170.051 124.449 171.197 124.389 172.342L121.369 233.95C119.715 234.851 117.842 235.269 115.963 235.158H114.997C105.937 235.551 99.4737 234.826 97.5711 233.165C96.7603 231.781 96.5014 230.141 96.8463 228.575C96.8552 228.024 96.9971 227.484 97.2601 227C97.523 226.516 97.8991 226.103 98.3563 225.796C99.1415 225.434 100.199 225.041 101.376 224.618C103.068 224.024 104.721 223.328 106.329 222.535C107.169 222.097 107.852 221.408 108.28 220.563C108.707 219.717 108.86 218.759 108.715 217.823C108.524 216.93 108.056 216.12 107.379 215.507C106.701 214.895 105.848 214.511 104.94 214.411C102.479 214.185 100.002 214.185 97.5409 214.411C95.4754 214.768 93.4516 215.335 91.5009 216.102C88.7353 217.288 85.8002 218.032 82.8033 218.307C82.8033 219.122 82.8033 219.998 82.8033 220.934C86.1739 220.701 89.4865 219.937 92.6183 218.669C94.3142 217.91 96.0858 217.333 97.9033 216.948C100.113 216.736 102.338 216.736 104.547 216.948C104.93 216.961 105.299 217.098 105.598 217.337C105.897 217.576 106.111 217.906 106.208 218.276C106.249 218.683 106.16 219.092 105.954 219.444C105.748 219.797 105.435 220.075 105.061 220.239C103.58 220.964 102.057 221.599 100.501 222.142L97.4805 223.35C96.6099 223.827 95.8755 224.518 95.347 225.359C94.8184 226.199 94.5133 227.16 94.4605 228.152C94.1947 229.359 94.1976 230.609 94.4689 231.815C94.7403 233.02 95.2736 234.151 96.0309 235.128C98.5073 237.272 104.608 237.846 110.587 237.846H112.339C107.567 241.561 100.953 245.94 95.6987 245.034C92.2257 244.43 83.6187 238.994 79.6021 235.611C79.3532 236.096 78.9888 236.512 78.5412 236.823C78.0935 237.133 77.5763 237.329 77.0351 237.393H75.6761C67.1125 236.993 58.6829 235.113 50.7611 231.836L30.8895 231.021ZM112.007 500.586H44.9023V497.928L112.007 497.626V500.586ZM112.007 497.022C112.007 487.962 108.383 485.848 102.313 485.123C93.0206 483.515 83.9959 480.628 75.4949 476.547C74.0453 475.912 72.8675 475.399 72.0521 475.097L72.9279 472.741C78.7263 454.259 85.2797 432.757 91.2291 409.895C91.4103 428.015 91.5915 444.233 91.7425 456.675C91.7425 463.561 91.9237 469.299 91.9539 473.527C91.9539 476.547 91.9539 478.842 91.9539 480.14C95.41 481.254 98.957 482.062 102.554 482.556C108.594 483.251 114.634 485.576 114.634 497.052L112.007 497.022ZM160.901 497.626V500.646H114.725V497.626H160.901ZM156.431 263.878C154.347 350.703 134.294 424.18 119.225 472.258H94.5511C94.5511 468.181 94.5511 462.957 94.3699 456.705C94.1887 442.088 93.9471 422.247 93.7659 400.382C104.094 358.585 109.651 321.862 110.678 287.736C110.686 287.567 110.66 287.398 110.602 287.239C110.544 287.08 110.454 286.935 110.339 286.811C110.224 286.687 110.085 286.588 109.93 286.518C109.776 286.449 109.609 286.411 109.44 286.408C109.1 286.407 108.775 286.54 108.532 286.777C108.289 287.014 108.149 287.337 108.141 287.676C107.114 321.56 101.558 358.314 91.1989 400.05C84.6757 426.445 77.0653 451.39 70.5119 472.258H44.8721V465.916C44.4795 427.562 43.7245 356.321 43.9359 297.4C56.9219 293.474 64.1397 284.414 63.8075 272.425C63.8171 272.251 63.7889 272.076 63.7246 271.914C63.6604 271.752 63.5617 271.605 63.4354 271.484C63.3091 271.364 63.1582 271.272 62.993 271.216C62.8279 271.159 62.6524 271.139 62.4787 271.157C62.3069 271.156 62.1369 271.191 61.979 271.258C61.821 271.326 61.6784 271.425 61.5598 271.549C61.4412 271.673 61.349 271.82 61.289 271.981C61.2289 272.142 61.2021 272.314 61.2103 272.485C61.6029 286.77 50.3383 292.538 43.9661 294.652C43.9661 284.052 43.9661 273.844 44.2077 264.12L156.431 263.878ZM177.843 67.1858C177.809 66.7386 177.951 66.2958 178.239 65.9518C178.526 65.6077 178.937 65.3895 179.383 65.3436C180.591 65.0416 182.131 65.3436 182.403 66.3402C182.675 67.3368 183.158 68.3636 183.49 69.3602C183.906 70.7753 184.219 72.2185 184.426 73.6788C183.671 73.1102 182.806 72.704 181.886 72.4857C180.966 72.2674 180.011 72.2418 179.081 72.4104C178.568 70.6286 178.084 68.8468 177.692 67.0952L177.843 67.1858ZM184.759 79.8698C184.7 81.0804 184.413 82.2691 183.913 83.373C183.309 84.581 182.614 84.7622 182.101 84.7622C181.505 83.5874 180.66 82.5568 179.625 81.7422H179.957C181.392 81.4154 182.788 80.9397 184.124 80.3228C184.357 80.1685 184.57 79.9859 184.759 79.7792V79.8698ZM169.206 50.5758C169.206 50.3946 169.387 50.3342 169.417 50.3342C169.52 50.2812 169.634 50.2536 169.749 50.2536C169.865 50.2536 169.979 50.2812 170.081 50.3342C171.682 51.3308 172.83 56.5856 174.038 62.1726C174.4 63.8638 174.793 65.6758 175.246 67.518C175.699 69.3602 176.121 71.0212 176.635 72.803L175.366 73.105H174.762C173.73 73.3266 172.719 73.6399 171.742 74.0412C170.383 68.8166 167.363 53.8374 169.206 50.4852V50.5758ZM190.346 92.8558L176.212 93.8826H176.031C173.464 93.5806 169.417 89.111 168.511 84.5206C168.106 83.1091 168.211 81.6001 168.807 80.2583C169.404 78.9164 170.454 77.8273 171.773 77.182C172.877 76.5937 174.055 76.1569 175.276 75.8834H175.91C176.715 75.6651 177.531 75.4937 178.356 75.37C182.01 74.766 182.856 75.7324 183.158 76.5176C183.158 76.8196 183.641 77.8162 182.856 78.2088C181.727 78.7363 180.542 79.1315 179.323 79.3866C178.568 79.5678 175.548 80.5946 175.608 82.2556V83.4636L176.695 83.6448C178.386 83.9166 179.715 85.9702 179.957 86.846C180.254 87.433 180.487 88.0507 180.651 88.6882C180.693 88.8556 180.769 89.013 180.872 89.1511C180.976 89.2891 181.106 89.4052 181.255 89.4923C181.404 89.5795 181.569 89.6361 181.74 89.6587C181.911 89.6814 182.085 89.6697 182.252 89.6244C182.583 89.5389 182.868 89.3259 183.043 89.0318C183.219 88.7377 183.271 88.3863 183.188 88.054C183.188 87.8124 183.007 87.601 182.947 87.3896C183.854 87.1455 184.658 86.6161 185.242 85.8796C185.868 86.3996 186.616 86.7528 187.416 86.9064H188.232C188.996 86.8957 189.745 86.6876 190.406 86.3024C190.715 88.4557 190.715 90.642 190.406 92.7954L190.346 92.8558ZM190.074 83.1314C189.92 83.4178 189.716 83.6738 189.47 83.8864C189.021 84.1398 188.496 84.2254 187.99 84.128C187.727 84.0952 187.474 84.0053 187.25 83.8644C187.026 83.7235 186.835 83.5351 186.691 83.3126C187.818 78.5907 187.63 73.6505 186.148 69.028C186.05 68.484 186.169 67.9234 186.479 67.4662C186.79 67.0089 187.267 66.6915 187.809 66.5818C188.011 66.5427 188.22 66.5448 188.421 66.5879C188.623 66.6309 188.814 66.7141 188.983 66.8324C189.152 66.9507 189.296 67.1018 189.405 67.2766C189.515 67.4514 189.588 67.6465 189.621 67.8502C191.795 75.8532 191.282 80.9872 190.134 83.071L190.074 83.1314Z" fill="#273036"/>
<path d="M95.1833 35.808C95.507 35.813 95.8203 35.6942 96.0591 35.4758C96.9204 34.8541 97.9102 34.4337 98.9556 34.2455C100.001 34.0574 101.075 34.1063 102.099 34.3886C102.416 34.5336 102.777 34.5484 103.105 34.4298C103.432 34.3112 103.7 34.0686 103.851 33.7544C103.995 33.442 104.009 33.0853 103.89 32.7625C103.771 32.4398 103.529 32.1774 103.217 32.033C101.744 31.5501 100.176 31.4352 98.6497 31.6985C97.123 31.9617 95.6839 32.595 94.4585 33.543C94.2624 33.719 94.1245 33.9505 94.0631 34.2068C94.0017 34.4631 94.0197 34.7319 94.1147 34.9777C94.2098 35.2235 94.3773 35.4346 94.5952 35.5829C94.813 35.7312 95.0708 35.8097 95.3344 35.808H95.1833Z" fill="#273036"/>
<path d="M83.1348 33.4222C82.8873 33.1841 82.5572 33.0511 82.2137 33.0511C81.8703 33.0511 81.5402 33.1841 81.2926 33.4222C80.2515 34.3777 78.9001 34.9247 77.4874 34.9624C77.1732 35.0102 76.8866 35.169 76.6794 35.41C76.4723 35.651 76.3584 35.9583 76.3584 36.2761C76.3584 36.5939 76.4723 36.9012 76.6794 37.1422C76.8866 37.3832 77.1732 37.542 77.4874 37.5898C79.5569 37.536 81.5387 36.7432 83.0744 35.355C83.214 35.2375 83.3273 35.0919 83.4068 34.9277C83.4864 34.7635 83.5304 34.5844 83.5361 34.4021C83.5418 34.2197 83.509 34.0382 83.4399 33.8694C83.3707 33.7005 83.2668 33.5482 83.1348 33.4222Z" fill="#273036"/>
<path d="M109.56 55.9514C110.134 56.147 110.735 56.249 111.342 56.2534C112.186 56.2707 113.005 55.9687 113.637 55.4078C115.298 53.8676 114.905 50.908 114.331 48.2202C114.19 47.6162 114.039 46.9518 113.878 46.227C113.063 42.8446 111.855 37.7408 112.791 35.4758C112.998 35.1728 113.31 34.9576 113.667 34.8718C115.182 34.34 116.833 34.34 118.348 34.8718C118.507 34.9739 118.687 35.0408 118.874 35.068C119.061 35.0952 119.252 35.0821 119.434 35.0296C119.616 34.977 119.784 34.8862 119.928 34.7632C120.072 34.6403 120.188 34.488 120.268 34.3166C120.349 34.1452 120.391 33.9587 120.394 33.7694C120.396 33.5802 120.358 33.3926 120.282 33.2193C120.206 33.046 120.094 32.8909 119.953 32.7644C119.812 32.6379 119.646 32.543 119.465 32.486C117.282 31.6844 114.884 31.6844 112.701 32.486C112.195 32.6555 111.729 32.9246 111.33 33.2773C110.93 33.63 110.606 34.0592 110.375 34.5396C109.137 37.5596 110.375 42.754 111.342 46.8914L111.764 48.8242C112.519 52.2972 112.157 53.2636 111.764 53.5354C111.372 53.8072 110.979 53.7468 110.224 53.5354C109.888 53.4419 109.528 53.4846 109.223 53.6541C108.918 53.8236 108.692 54.1064 108.593 54.4414C108.521 54.7698 108.583 55.1132 108.764 55.3964C108.945 55.6795 109.231 55.8791 109.56 55.9514Z" fill="#273036"/>
<path d="M102.916 62.0518C103.562 62.7079 104.333 63.2277 105.184 63.5805C106.035 63.9332 106.948 64.1117 107.868 64.1054C108.351 64.1503 108.836 64.1503 109.318 64.1054C110.176 63.9682 110.986 63.6205 111.676 63.0935C112.367 62.5664 112.916 61.8765 113.274 61.0854C113.406 60.765 113.406 60.4052 113.273 60.0852C113.14 59.7652 112.885 59.5112 112.565 59.3791C112.244 59.2469 111.884 59.2474 111.564 59.3805C111.244 59.5136 110.99 59.7684 110.858 60.0888C110.638 60.4508 110.339 60.7584 109.984 60.9885C109.628 61.2186 109.225 61.3653 108.805 61.4176C108.09 61.5667 107.349 61.5372 106.649 61.3318C105.948 61.1263 105.309 60.7512 104.788 60.2398C104.535 59.9997 104.2 59.8659 103.852 59.8659C103.503 59.8659 103.168 59.9997 102.916 60.2398C102.68 60.4822 102.547 60.8073 102.547 61.1458C102.547 61.4842 102.68 61.8093 102.916 62.0518Z" fill="#273036"/>
<path d="M228.911 11.8594C229.11 11.8606 229.307 11.8147 229.486 11.7255C229.664 11.6363 229.819 11.5063 229.938 11.346L235.645 3.88658C235.752 3.75302 235.83 3.59939 235.875 3.43488C235.921 3.27036 235.933 3.09836 235.91 2.92918C235.888 2.75999 235.831 2.5971 235.744 2.45025C235.657 2.30341 235.541 2.17563 235.404 2.07458C235.268 1.96753 235.112 1.88875 234.945 1.84288C234.778 1.79701 234.603 1.78498 234.432 1.80749C234.26 1.83 234.095 1.8866 233.945 1.97396C233.796 2.06132 233.665 2.17767 233.562 2.31618L227.763 9.74538C227.62 9.94034 227.533 10.1706 227.511 10.4114C227.489 10.6522 227.534 10.8944 227.639 11.1119C227.745 11.3294 227.908 11.5139 228.111 11.6456C228.314 11.7774 228.548 11.8513 228.79 11.8594H228.911Z" fill="#273036"/>
<path d="M243.466 14.5472C243.77 14.3867 243.998 14.1121 244.1 13.7838C244.201 13.4554 244.169 13.1 244.009 12.7956C243.843 12.4895 243.563 12.261 243.23 12.1593C242.896 12.0576 242.536 12.0909 242.227 12.252L234.436 16.3592C234.132 16.5197 233.904 16.7943 233.802 17.1226C233.7 17.451 233.733 17.8063 233.892 18.1108C234.005 18.3247 234.174 18.503 234.382 18.6257C234.59 18.7484 234.829 18.8106 235.07 18.8054C235.281 18.8102 235.49 18.758 235.674 18.6544L243.466 14.5472Z" fill="#273036"/>
<path d="M245.611 24.0602H236.822C236.508 24.108 236.222 24.2668 236.014 24.5078C235.807 24.7488 235.693 25.0561 235.693 25.3739C235.693 25.6917 235.807 25.999 236.014 26.24C236.222 26.481 236.508 26.6398 236.822 26.6876H245.641C245.955 26.6398 246.242 26.481 246.449 26.24C246.656 25.999 246.77 25.6917 246.77 25.3739C246.77 25.0561 246.656 24.7488 246.449 24.5078C246.242 24.2668 245.955 24.108 245.641 24.0602H245.611Z" fill="#273036"/>
</svg>
